HIERARCHY
ROOT SimulationBone
{
	OFFSET 0.000000 0.000000 0.000000
	CHANNELS 6 Xposition Yposition Zposition Zrotation Yrotation Xrotation 
	JOINT Hips
	{
		OFFSET 0.000000 0.000000 0.000000
		CHANNELS 6 Xposition Yposition Zposition Zrotation Yrotation Xrotation 
		JOINT RightUpLeg
		{
			OFFSET 0.103462 1.857844 10.548508
			CHANNELS 3 Zrotation Yrotation Xrotation
			JOINT RightLeg
			{
				OFFSET 43.500000 -0.000046 -0.000008
				CHANNELS 3 Zrotation Yrotation Xrotation
				JOINT RightFoot
				{
					OFFSET 42.372192 0.000000 0.000004
					CHANNELS 3 Zrotation Yrotation Xrotation
					JOINT RightToe
					{
						OFFSET 17.299997 -0.000003 0.000018
						CHANNELS 3 Zrotation Yrotation Xrotation
						End Site
						{
							OFFSET 0.000000 0.000000 0.000000
						}
					}
				}
			}
		}
		JOINT LeftUpLeg
		{
			OFFSET 0.103459 1.857830 -10.548515
			CHANNELS 3 Zrotation Yrotation Xrotation
			JOINT LeftLeg
			{
				OFFSET 43.500046 -0.000034 -0.000006
				CHANNELS 3 Zrotation Yrotation Xrotation
				JOINT LeftFoot
				{
					OFFSET 42.372253 0.000015 -0.000006
					CHANNELS 3 Zrotation Yrotation Xrotation
					JOINT LeftToe
					{
						OFFSET 17.299969 -0.000012 0.000010
						CHANNELS 3 Zrotation Yrotation Xrotation
						End Site
						{
							OFFSET 0.000000 0.000000 0.000000
						}
					}
				}
			}
		}
		JOINT Spine
		{
			OFFSET 6.901964 -2.603727 0.000001
			CHANNELS 3 Zrotation Yrotation Xrotation
			JOINT Spine1
			{
				OFFSET 12.588105 -0.000009 0.000006
				CHANNELS 3 Zrotation Yrotation Xrotation
				JOINT Spine2
				{
					OFFSET 12.343197 0.000007 -0.000002
					CHANNELS 3 Zrotation Yrotation Xrotation
					JOINT Neck
					{
						OFFSET 25.832897 0.000002 -0.000001
						CHANNELS 3 Zrotation Yrotation Xrotation
						JOINT Head
						{
							OFFSET 11.766611 0.000000 0.000004
							CHANNELS 3 Zrotation Yrotation Xrotation
							End Site
							{
								OFFSET 0.000000 0.000000 0.000000
							}
						}
					}
					JOINT RightShoulder
					{
						OFFSET 19.745911 -1.480377 6.000110
						CHANNELS 3 Zrotation Yrotation Xrotation
						JOINT RightArm
						{
							OFFSET 11.284108 -0.000006 -0.000027
							CHANNELS 3 Zrotation Yrotation Xrotation
							JOINT RightForeArm
							{
								OFFSET 33.000046 -0.000010 0.000031
								CHANNELS 3 Zrotation Yrotation Xrotation
								JOINT RightHand
								{
									OFFSET 25.200014 0.000009 0.000001
									CHANNELS 3 Zrotation Yrotation Xrotation
									End Site
									{
										OFFSET 0.000000 0.000000 0.000000
									}
								}
							}
						}
					}
					JOINT LeftShoulder
					{
						OFFSET 19.746105 -1.480358 -6.000092
						CHANNELS 3 Zrotation Yrotation Xrotation
						JOINT LeftArm
						{
							OFFSET 11.284138 -0.000011 -0.000001
							CHANNELS 3 Zrotation Yrotation Xrotation
							JOINT LeftForeArm
							{
								OFFSET 33.000088 0.000023 -0.000007
								CHANNELS 3 Zrotation Yrotation Xrotation
								JOINT LeftHand
								{
									OFFSET 25.199776 0.000128 0.000427
									CHANNELS 3 Zrotation Yrotation Xrotation
									End Site
									{
										OFFSET 0.000000 0.000000 0.000000
									}
								}
							}
						}
					}
				}
			}
		}
	}
}
MOTION
Frames: 14
Frame Time: 0.016667
67.877682 0.000000 555.988500 0.000000 13.601053 0.000000 -0.824282 86.283005 -0.489807 90.609199 -1.802261 -178.634904 174.738525 -6.464082 173.222789 -72.033022 4.617979 -0.871014 62.690091 -7.784292 -19.541977 21.454569 0.003106 0.000020 150.080584 -1.768401 -163.892603 -39.685241 -1.260434 3.242648 80.973909 -4.388909 -8.910783 21.454554 -0.003092 0.000000 6.942815 -0.418364 -1.669355 3.884323 -0.781071 -3.351720 3.566787 -0.801425 -3.346954 -2.006556 7.042547 3.185919 -12.463861 -4.911466 6.458341 113.988291 -80.109783 65.226645 19.856064 53.307160 44.698926 -89.180305 -2.852426 2.502434 -9.017357 -6.677263 17.292976 -131.599152 85.619596 50.347231 39.673876 -35.235025 -59.058116 -106.009367 0.032512 -3.016529 -10.896336 16.553286 -15.318810 
70.241131 0.000000 555.542312 0.000000 13.021765 0.000000 -0.855485 85.226562 -0.230312 91.341528 -0.344107 -178.555964 172.619904 -8.277896 174.199016 -77.184716 4.830142 -2.258063 65.291826 -5.641066 -17.953154 21.454562 0.003107 0.000019 150.515266 -3.876099 -164.857599 -43.101484 -1.216578 4.603906 84.624622 -4.902363 -8.529680 21.454550 -0.003092 -0.000000 7.170824 -0.073440 -1.364191 4.329930 -0.096240 -2.730138 4.012227 -0.112856 -2.729512 -2.108512 6.532159 3.165623 -12.722173 -4.468522 6.194212 114.337921 -80.085600 64.878014 21.456405 55.239706 44.571122 -85.604461 -3.946499 2.427607 -9.127754 -9.099903 17.644433 -130.655921 85.552155 51.299097 37.769354 -38.673210 -57.224133 -103.130214 0.414439 -2.917391 -10.537110 16.946191 -16.412183 
72.579219 0.000000 555.094521 0.000000 12.451063 0.000000 -0.844188 84.275216 -0.030611 92.089073 0.720825 -178.562395 170.236910 -9.572532 175.483807 -81.804888 4.758204 -3.436140 67.125280 -3.563584 -15.591778 21.454559 0.003109 0.000017 150.934907 -5.436104 -166.800738 -46.675366 -0.250186 5.898102 87.766354 -5.441681 -8.093019 21.454549 -0.003092 -0.000000 7.418588 0.206539 -1.103204 4.819953 0.458522 -2.196933 4.502104 0.445113 -2.199663 -2.264943 6.443764 3.064690 -12.806606 -4.625884 6.134439 118.764202 -79.970227 60.444366 22.782106 56.688379 44.688182 -80.964084 -5.650746 2.351028 -10.384183 -13.100606 16.292558 -137.191808 85.375109 44.732781 34.288952 -42.703276 -53.958684 -98.661118 1.031496 -2.759176 -11.991796 17.892052 -18.706381 
74.903535 0.000000 554.646280 0.000000 11.896954 0.000000 -0.820843 83.520203 0.056192 92.529912 1.112585 -178.550292 167.414330 -9.791000 176.931966 -85.529834 4.611917 -4.660830 68.942610 -1.606224 -13.428407 21.454558 0.003111 0.000016 151.360597 -5.938399 -168.595584 -49.978269 1.113107 6.555747 90.729425 -5.656588 -7.932881 21.454551 -0.003092 0.000000 7.593772 0.340133 -0.915641 5.169104 0.720599 -1.815306 4.851162 0.709488 -1.819625 -2.494480 6.281049 2.997326 -12.685311 -4.706771 6.058654 124.549560 -79.812899 54.641215 23.871426 57.938239 44.993610 -75.176258 -7.479277 2.222107 -11.533295 -18.685442 13.681951 -146.881789 85.234518 34.982991 29.728151 -47.140073 -49.577364 -93.659180 1.969811 -2.605468 -13.733361 18.844999 -20.666990 
77.226357 0.000000 554.199795 0.000000 11.361785 0.000000 -0.848891 83.084437 0.021217 92.400884 0.799675 -178.432223 164.047562 -8.678427 178.301298 -88.032278 4.600315 -6.250291 71.376485 0.259101 -12.211725 21.454552 0.003111 0.000016 151.829617 -5.256192 -169.213317 -52.414601 2.127994 6.262364 93.349187 -5.290387 -8.050271 21.454553 -0.003092 0.000000 7.622845 0.297502 -0.806220 5.228535 0.630939 -1.598274 4.910563 0.621140 -1.602057 -2.798368 5.610355 3.066145 -12.365258 -4.117743 5.775344 128.892479 -79.777786 50.271421 24.887183 59.277157 45.513671 -68.438213 -8.901301 2.049560 -11.323347 -25.539265 10.422289 -156.262754 85.341199 25.531596 24.694277 -51.839080 -44.565946 -89.396843 3.213242 -2.515075 -13.998089 19.476011 -20.733698 
79.561641 0.000000 553.757321 0.000000 10.848130 0.000000 -0.958122 82.967468 -0.048186 92.039397 0.205490 -178.204239 160.533911 -6.928605 179.508914 -89.295925 4.654526 -8.069837 73.726488 2.047297 -11.471752 21.454551 0.003110 0.000017 152.677349 -4.084200 -168.457627 -53.766869 2.285883 5.275607 95.463422 -4.480216 -8.238016 21.454555 -0.003092 0.000000 7.590980 0.169489 -0.725089 5.166804 0.371013 -1.441938 4.848819 0.362163 -1.444156 -2.979761 4.857568 3.116489 -12.017666 -3.553247 5.455671 131.598042 -79.761297 47.546096 26.121562 60.088683 46.644156 -61.977607 -9.746724 1.848160 -10.426863 -32.485632 7.433098 -164.618237 85.435230 17.113966 18.979992 -56.130042 -38.623660 -86.726230 4.207621 -2.454849 -13.573671 20.203802 -19.948420 
81.922361 0.000000 553.320997 0.000000 10.357997 0.000000 -1.148551 83.124940 -0.061745 91.826325 -0.208222 -177.920281 157.259340 -5.354278 -179.416115 -89.401319 4.694328 -9.858198 75.282034 3.726819 -10.629575 21.454561 0.003109 0.000016 154.212618 -3.236562 -166.590351 -53.943208 1.439757 3.993659 96.959926 -3.491826 -8.302203 21.454555 -0.003092 -0.000000 7.591966 0.061291 -0.614506 5.170286 0.149839 -1.225676 4.852270 0.142299 -1.226562 -2.875421 4.500373 2.990776 -11.766836 -3.706257 5.276019 132.871256 -79.626720 46.273116 27.857348 59.728545 48.747850 -57.063414 -10.003222 1.675161 -10.144780 -38.115165 5.857989 -169.921149 85.296937 11.771688 12.492430 -59.360194 -31.596678 -86.165746 4.416821 -2.434612 -13.597197 21.403009 -19.577479 
84.316416 0.000000 552.892908 0.000000 9.893156 0.000000 -1.346784 83.460220 -0.015832 91.684982 -0.247634 -177.757068 154.263921 -4.256393 -178.556376 -88.539830 4.779018 -11.355559 76.470647 5.170790 -9.677587 21.454568 0.003109 0.000016 156.224663 -3.088805 -164.886600 -53.151370 0.463236 2.879596 97.922522 -2.649130 -8.208316 21.454555 -0.003092 0.000000 7.594516 0.016439 -0.439443 5.175987 0.052433 -0.877712 4.857932 0.046996 -0.878015 -2.670293 4.370160 2.810768 -11.433438 -3.960828 5.121078 133.096203 -79.539726 46.053225 30.450639 58.373520 51.932689 -54.035179 -9.918090 1.574347 -10.535914 -40.427534 5.593673 -172.436060 85.225358 9.237036 5.563420 -61.744860 -23.859163 -87.255222 3.956125 -2.460566 -13.878108 22.634868 -19.011389 
86.747234 0.000000 552.476547 0.000000 9.450526 0.000000 -1.478528 83.890358 0.065738 91.466466 0.118274 -177.874740 151.550746 -3.710456 -178.006599 -86.859503 4.958081 -12.358605 77.826812 6.243169 -8.737369 21.454555 0.003112 0.000019 158.420798 -3.688054 -164.537957 -51.685595 0.189737 2.292645 98.457974 -2.196355 -7.981588 21.454554 -0.003092 0.000000 7.552271 0.041764 -0.180665 5.091545 0.091430 -0.359325 4.773465 0.089123 -0.359875 -2.599931 4.209735 2.715306 -10.820456 -3.645855 4.860788 132.858230 -79.683205 46.281748 33.973570 56.322397 56.036481 -52.894410 -9.788803 1.533187 -11.221227 -38.188728 6.180998 -173.748956 85.518332 7.916602 -1.591406 -63.627733 -15.733439 -89.309406 3.113891 -2.500293 -13.998422 23.406100 -17.548184 
89.217225 0.000000 552.077987 0.000000 9.021685 0.000000 -1.548385 84.439407 0.145430 91.187630 0.522061 -178.267980 149.310885 -3.367495 -177.786505 -84.211737 5.186111 -12.891157 79.219217 6.902582 -7.992308 21.454541 0.003114 0.000022 160.789688 -4.552595 -165.286452 -49.697927 0.359878 2.065501 98.573105 -2.017202 -7.718310 21.454553 -0.003092 0.000000 7.482698 0.057964 0.140000 4.952660 0.109978 0.282334 4.634583 0.111545 0.281659 -2.750966 4.059174 2.624668 -9.942209 -3.189688 4.566708 133.271835 -80.036396 45.836312 37.530440 53.732160 60.317282 -53.196695 -9.879037 1.543382 -12.605911 -34.095542 8.171866 -174.991208 86.134904 6.672136 -8.848315 -64.830979 -7.605878 -91.737663 2.227896 -2.538129 -14.109822 23.838249 -16.124676 
91.726558 0.000000 551.705238 0.000000 8.602464 0.000000 -1.583855 85.145512 0.187047 90.878076 0.596154 -178.882272 147.701075 -2.866235 -177.850857 -80.446852 5.354486 -13.000383 80.347613 7.146604 -7.589739 21.454543 0.003114 0.000021 163.331280 -5.205706 -166.583711 -47.303314 0.553113 1.947468 98.218605 -1.948234 -7.489633 21.454550 -0.003092 -0.000000 7.406828 -0.013639 0.494326 4.800580 -0.047556 0.987661 4.482541 -0.041728 0.987924 -3.103921 4.000545 2.442286 -8.893529 -3.109843 4.318939 135.291649 -80.524809 43.760877 40.379424 50.820760 64.170617 -54.415519 -10.285493 1.605285 -14.918540 -31.030666 11.810016 -177.470865 86.938360 4.188970 -15.656063 -65.141133 -0.219419 -94.086226 1.557319 -2.590568 -14.434624 24.112817 -15.732055 
94.268994 0.000000 551.360056 0.000000 8.193977 0.000000 -1.625522 85.996178 0.182037 90.460506 0.373633 -179.627026 146.518786 -2.222595 -177.851965 -75.720186 5.200503 -12.611651 80.910796 6.975714 -7.429848 21.454555 0.003112 0.000019 165.829849 -5.567703 -168.283184 -44.672373 0.759257 1.948956 97.220673 -2.001179 -7.215720 21.454548 -0.003092 0.000000 7.299223 -0.161981 0.868986 4.582916 -0.357892 1.730937 4.264965 -0.347572 1.733062 -3.364359 3.987602 2.222641 -7.907982 -3.171887 4.086161 138.061122 -81.084618 40.924904 42.552433 47.855279 67.283918 -56.135780 -10.479322 1.684813 -17.009637 -29.077166 15.120982 176.268042 87.741428 -2.083030 -21.110951 -64.648497 5.756826 -96.343403 0.998622 -2.657068 -14.836913 24.015402 -15.880067 
96.834688 0.000000 551.031127 0.000000 7.796932 0.000000 -1.701063 86.953854 0.142874 89.878110 -0.021750 179.610781 145.563965 -1.518763 -177.499898 -70.242348 4.543270 -11.718925 80.685211 6.390734 -7.434266 21.454562 0.003111 0.000017 168.090248 -5.662537 -170.232921 -41.978207 1.007818 2.099945 95.456453 -2.184972 -6.801783 21.454549 -0.003092 0.000000 7.137775 -0.354752 1.250468 4.254624 -0.754719 2.487235 3.936817 -0.739826 2.491741 -3.282566 3.957356 2.038052 -7.180518 -3.031832 3.828028 140.311807 -81.680739 38.610915 44.303477 45.050771 69.540161 -58.022725 -9.972713 1.722218 -17.876005 -27.951218 16.291070 162.517957 88.341423 -15.853015 -24.660655 -63.565141 10.004100 -98.556646 0.421816 -2.718916 -15.128819 23.368101 -15.880529 
99.419221 0.000000 550.708588 0.000000 7.410700 0.000000 -1.780412 87.931396 0.085990 89.260300 -0.500762 178.992735 144.980012 -0.780898 -177.053502 -64.108141 3.792778 -10.518820 79.746802 5.415227 -7.887499 21.454565 0.003109 0.000016 170.215581 -5.512207 -171.846453 -39.351844 1.112529 2.211738 93.136008 -2.339165 -6.261338 21.454553 -0.003092 0.000000 6.958925 -0.566052 1.609142 3.888693 -1.185154 3.198744 3.571060 -1.165961 3.205830 -3.063594 3.897243 1.879397 -6.597010 -2.658848 3.529590 141.902161 -82.269484 36.964924 45.846305 42.394324 71.218928 -59.981942 -9.056306 1.726752 -17.934907 -27.724345 15.947187 143.714417 88.703766 -34.669557 -26.544414 -62.179458 12.567658 -100.573189 -0.051013 -2.771837 -15.314636 22.518198 -15.768936 
